<svg xmlns="http://www.w3.org/2000/svg" xmlns:xlink="http://www.w3.org/1999/xlink" version="1.1" id="Layer_1" x="0px" y="0px" style="enable-background:new 0 0 503.44 265.04;" xml:space="preserve" viewBox="49.22 43.31 405 180">
<style type="text/css">
	.st0{fill-rule:evenodd;clip-rule:evenodd;fill:#845BA6;}
	.st1{fill-rule:evenodd;clip-rule:evenodd;fill:#636466;}
	.st2{fill:#636466;}
</style>
<path class="st0" d="M405,133.78l20.53,17.48c-14.29,6.79-30.31,5.3-41.06,0L405,133.78z"/>
<path class="st0" d="M405,102.45l31.22,42.29c-1.77,1.5-4.14,2.94-6.23,4.12L405,122.55l-24.94,26.31  c-2.42-1.18-4.46-2.62-6.29-4.39L405,102.45z"/>
<path class="st0" d="M388.33,60.74l-23.16,74.53C345.82,108.97,357.75,71.7,388.33,60.74"/>
<path class="st0" d="M421.65,60.74l23.16,74.53C464.17,108.97,452.29,71.7,421.65,60.74"/>
<path class="st0" d="M405,43.31l38.05,94.64c-0.59,0.59-2.04,2.35-4.14,4.44L405,82.34l-33.86,60.05c-1.24-0.91-2.42-2.35-4.19-4.44  L405,43.31z"/>
<polygon class="st1" points="301.92,155.29 304.94,141.04 294.88,155.29 291.2,155.29 287.06,140.48 283.91,155.29 279.8,155.29   284.47,133.5 289.38,133.5 293.89,150.36 305.58,133.5 310.75,133.5 306.08,155.29 "/>
<polygon class="st1" points="265.43,136.57 264.1,142.63 274.9,142.63 274.27,145.79 263.46,145.79 262.09,152.13 273.77,152.13   273.14,155.29 257.01,155.29 261.69,133.5 278.13,133.5 277.49,136.57 "/>
<polygon class="st1" points="247.94,136.57 243.92,155.29 239.48,155.29 243.5,136.57 236.3,136.57 237.02,133.5 256.05,133.5   255.41,136.57 "/>
<polygon class="st1" points="201.57,146.03 199.58,155.29 195.24,155.29 197.23,145.98 191.47,133.5 196.12,133.5 200.17,142.29   208.41,133.5 213.4,133.5 "/>
<path class="st2" d="M181.41,133.31c2.7,0,5.33,0.63,5.33,0.63c-0.4,1.47-0.06,3.43-0.06,3.43s-3.69-0.9-5.93-0.9  c-2.83,0-4.42,1.26-4.38,2.47c0.05,1.77,2.27,3.36,3.64,4.27c3.58,2.39,4.85,4.18,4.91,6.41c0.1,3.72-4.33,6.19-8.83,6.19  c-2.02,0-4.88-0.55-6.52-1.04c-0.38-0.12-0.63-0.5-0.58-0.89c0.2-1.61,0.09-3.51,0.09-3.51s2.55,2.33,6.92,2.33  c2.24,0,4.61-1.14,4.56-2.88c-0.05-1.79-2.52-3.24-3.6-4.06c-2.24-1.7-4.92-3.41-5-6.33C171.91,136.74,173.73,133.31,181.41,133.31"/>
<path class="st2" d="M225.52,133.31c2.7,0,5.33,0.63,5.33,0.63c-0.4,1.47-0.06,3.43-0.06,3.43s-3.69-0.9-5.93-0.9  c-2.83,0-4.42,1.26-4.38,2.47c0.05,1.77,2.27,3.36,3.64,4.27c3.58,2.39,4.85,4.18,4.91,6.41c0.1,3.72-4.33,6.19-8.83,6.19  c-2.02,0-4.88-0.55-6.52-1.04c-0.38-0.12-0.63-0.5-0.58-0.89c0.2-1.61,0.09-3.51,0.09-3.51s2.55,2.33,6.92,2.33  c2.24,0,4.61-1.14,4.56-2.88c-0.05-1.79-2.52-3.24-3.6-4.06c-2.24-1.7-4.92-3.41-5-6.33C216.02,136.74,217.84,133.31,225.52,133.31"/>
<path class="st2" d="M325.14,133.31c2.7,0,5.33,0.63,5.33,0.63c-0.4,1.47-0.06,3.43-0.06,3.43s-3.69-0.9-5.93-0.9  c-2.83,0-4.42,1.26-4.38,2.47c0.05,1.77,2.27,3.36,3.64,4.27c3.58,2.39,4.85,4.18,4.91,6.41c0.1,3.72-4.33,6.19-8.83,6.19  c-2.02,0-4.88-0.55-6.52-1.04c-0.39-0.12-0.63-0.5-0.58-0.89c0.2-1.61,0.09-3.51,0.09-3.51s2.55,2.33,6.92,2.33  c2.24,0,4.61-1.14,4.56-2.88c-0.05-1.79-2.52-3.24-3.6-4.06c-2.24-1.7-4.92-3.41-5-6.33C315.63,136.74,317.45,133.31,325.14,133.31"/>
<polygon class="st1" points="243.45,52.75 231.97,52.75 233.92,43.31 245.4,43.31 "/>
<polygon class="st1" points="228.59,120.72 218.41,120.72 230.82,62.56 240.95,62.56 "/>
<path class="st2" d="M281.55,71.19c0,0-1.98-1.49-5.22-1.49c-8.03,0-17.76,7.59-19.37,15.18l-7.48,35.84h-10.13l12.24-57.65h10.76  c0,0-1.29,3.24-1.96,6c0,0,8.02-7.47,15.52-7.47h7.45C283.37,61.6,283.22,65.2,281.55,71.19"/>
<path class="st2" d="M116.62,77.4c0-9.51,9.02-15.35,24.15-15.35c3.91,0,12.21,1.28,12.21,1.28s-0.75,2.74-1.02,10.32l-2.21-1.45  c0,0-5.62-1.95-11.44-1.95c-8.96,0-11.78,3.42-11.78,6.85c0,4.77,5.02,8.35,8.68,11.43c4.28,3.6,11.06,8.15,11.06,16.3  c0,6.9-4.49,17.36-23.79,17.36c-6.54,0-14.6-1.76-14.6-1.76s-1.18-0.86-0.09-11.73l2.45,3.12c0,0,5.33,2.74,13.93,2.74  c8.07,0,11.77-3.55,11.77-6.97c0-4.5-4.61-8.39-8.78-12.64C121.59,89.24,116.62,84.72,116.62,77.4"/>
<path class="st2" d="M328.64,90.01c5.89-16.29-2.96-29.04-18.68-29.04c-21.24,0-34.01,19.18-34.79,38.35  c-0.44,10.96,4.65,23.29,23.77,23.29c11.71,0,18.52-2.83,18.52-2.83c2.66-4.79,3.46-9.58,3.46-9.58s-10.1,4.81-20.21,4.81  c-16.15,0-17.03-16.12-13.93-25.05L328.64,90.01z M310.05,69.07c6.22,0,13.01,4.1,10.23,13.6l-31.57,0.3  C292.86,73.98,299.38,69.07,310.05,69.07"/>
<path class="st2" d="M85.39,61.32c-7.14,0-18.95,2.73-18.95,2.73l-3.56,9.52c0,0,13.6-4.1,22.16-4.1c5.79,0,11.57,1.14,11.49,5.88  c-0.12,7.23-16.8,10.34-27.29,13.41c-13.36,3.91-20.02,11.13-20.02,20.38c0,9.55,8.48,13.1,19.13,13.1h28.42l10.35-48.13  C108.83,65.2,96.76,61.32,85.39,61.32 M88.05,113.06c0,0-4.3,1.7-12.47,1.7c-9.63,0-16.01-1.5-16.01-6.93c0-3.86,2.6-7.71,6.84-9.29  c9.72-3.61,17.13-4.51,26.96-9.4L88.05,113.06z"/>
<path class="st2" d="M191.17,61.49c-17.43,0-25.51,3.95-25.51,3.95l-20.87,90.37h9.3l10.45-41.56c0,0,4.5,7.54,14.98,8.3  c14.65,1.06,29.03-6.6,34.56-27.67C219.71,73.49,209.83,61.49,191.17,61.49 M205.04,93.3c-4.89,15.93-14.83,22.1-22.66,22.1  c-10.08,0-16.05-10.52-14.39-18.56l5.04-23.67c0,0,5.95-3.93,16.57-3.54C200.91,70.04,210.2,76.49,205.04,93.3"/>
<rect x="49.22" y="180.36" class="st0" width="405" height="2"/>
<path d="M52.83,203.95l-0.57,2.51c0,0,2.56-1.03,4.74-1.03c2.79,0,3.45,0.87,2.87,3.13c-6.05,0-10.64,1.71-10.64,6.03  c0,2.29,1.49,3.83,3.68,3.83c1.62,0,3.32-0.52,5.14-1.93l-0.35,1.53h2.48c0,0,1.57-6.84,2.25-9.83c0.85-3.72-1.42-4.89-4.48-4.89  C56.55,203.29,54.84,203.5,52.83,203.95 M58.5,214.47c-1.02,0.89-2.86,1.71-4.31,1.71c-1.44,0-2.33-0.55-2.33-1.72  c0-2.2,1.94-3.41,4.72-3.71c0.71-0.08,2.84-0.27,2.84-0.27L58.5,214.47z"/>
<path d="M307.52,203.95l-0.57,2.51c0,0,2.56-1.03,4.74-1.03c2.79,0,3.45,0.87,2.86,3.13c-6.05,0-10.64,1.71-10.64,6.03  c0,2.29,1.49,3.83,3.68,3.83c1.62,0,3.32-0.52,5.14-1.93l-0.35,1.53h2.48c0,0,1.57-6.84,2.25-9.83c0.85-3.72-1.42-4.89-4.48-4.89  C311.24,203.29,309.54,203.5,307.52,203.95 M313.2,214.47c-1.02,0.89-2.86,1.71-4.31,1.71c-1.44,0-2.33-0.55-2.33-1.72  c0-2.2,1.94-3.41,4.72-3.71c0.71-0.08,2.83-0.27,2.83-0.27L313.2,214.47z"/>
<path d="M385.97,203.95l-0.57,2.51c0,0,2.56-1.03,4.74-1.03c2.79,0,3.45,0.87,2.87,3.13c-6.05,0-10.64,1.71-10.64,6.03  c0,2.29,1.49,3.83,3.68,3.83c1.62,0,3.33-0.52,5.14-1.93l-0.35,1.53h2.48c0,0,1.57-6.84,2.25-9.83c0.85-3.72-1.42-4.89-4.48-4.89  C389.68,203.29,387.98,203.5,385.97,203.95 M391.64,214.47c-1.02,0.89-2.86,1.71-4.31,1.71c-1.44,0-2.33-0.55-2.33-1.72  c0-2.2,1.94-3.41,4.72-3.71c0.71-0.08,2.84-0.27,2.84-0.27L391.64,214.47z"/>
<path d="M77.54,213.61c-0.96,4.23,1.85,4.68,2.86,4.68c2.08,0,3.23-0.41,3.23-0.41l0.52-2.27c0,0-1.09,0.56-2.52,0.56  c-1.43,0-1.91-0.85-1.68-2l1.91-8.51h4.58l0.46-2.01h-4.58l0.95-4.13h-2.49l-0.95,4.13h-1.68l-0.46,2.01h1.68L77.54,213.61z"/>
<path d="M99.1,213.61c-0.96,4.23,1.85,4.68,2.86,4.68c2.08,0,3.23-0.41,3.23-0.41l0.52-2.27c0,0-1.09,0.56-2.52,0.56  s-1.91-0.85-1.68-2l1.91-8.51h4.58l0.46-2.01h-4.58l0.95-4.13h-2.49l-0.95,4.13H99.7l-0.46,2.01h1.68L99.1,213.61z"/>
<path d="M175.69,213.61c-0.96,4.23,1.85,4.68,2.86,4.68c2.08,0,3.23-0.41,3.23-0.41l0.52-2.27c0,0-1.09,0.56-2.52,0.56  s-1.91-0.85-1.68-2l1.91-8.51h4.58l0.46-2.01h-4.58l0.95-4.13h-2.49l-0.95,4.13h-1.68l-0.46,2.01h1.68L175.69,213.61z"/>
<path d="M133.07,211.08c0,0,2.67-7.83-4.06-7.83c-6.65,0-8.97,6.11-8.97,9.74c0,2.96,2.11,5.35,6.24,5.35  c2.49,0,5.11-1.21,5.11-1.21l0.64-2.8c0,0-2.46,1.9-5.51,1.9c-2.88,0-4.57-1.49-3.7-5.16H133.07z M128.45,205.24  c4.16,0,2.74,3.99,2.74,3.99h-7.94C123.25,209.23,124.5,205.24,128.45,205.24"/>
<path d="M146.7,218.01h2.49l2.46-10.72c0,0,2.74-1.74,4.58-1.74c1.57,0,2.35,0.42,1.62,3.67l-2.01,8.79h2.49  c0,0,1.47-6.56,2.14-9.32c0.37-1.55,1.36-5.44-3.4-5.44c-2.53,0-4.94,1.99-4.94,1.99l0.36-1.59h-2.49L146.7,218.01z"/>
<path d="M242.6,218.01h2.49l2.46-10.72c0,0,2.74-1.74,4.58-1.74c1.57,0,2.35,0.42,1.62,3.67l-2.01,8.79h2.49  c0,0,1.47-6.56,2.14-9.32c0.37-1.55,1.35-5.44-3.4-5.44c-2.53,0-4.94,1.99-4.94,1.99l0.36-1.59h-2.49L242.6,218.01z"/>
<path d="M228.52,205.24c-0.9-1.33-2.35-1.99-4.34-1.99c-1.99,0-3.74,0.66-5.26,1.99c-1.52,1.33-2.55,3.2-3.11,5.59  c-0.54,2.33-0.37,4.18,0.5,5.54c0.87,1.36,2.33,2.04,4.39,2.04c1.99,0,3.74-0.66,5.25-1.98c1.5-1.31,2.53-3.18,3.08-5.6  C229.59,208.43,229.42,206.56,228.52,205.24 M226.47,210.83c-0.42,1.83-1.09,3.21-2,4.12c-0.91,0.91-2.01,1.37-3.29,1.37  c-1.3,0-2.19-0.46-2.68-1.4c-0.49-0.93-0.53-2.3-0.11-4.1c0.43-1.86,1.09-3.24,2-4.14c0.91-0.91,2.01-1.36,3.31-1.36  c1.29,0,2.18,0.45,2.67,1.36C226.86,207.59,226.9,208.98,226.47,210.83"/>
<polygon points="264.88,218.01 261.72,218.01 262.56,214.34 265.72,214.34 "/>
<polygon points="453.38,218.01 450.22,218.01 451.06,214.34 454.22,214.34 "/>
<polygon points="202.87,201.24 200.04,201.24 200.62,198.73 203.45,198.73 "/>
<polygon points="198.86,218.01 196.37,218.01 199.66,203.65 202.15,203.65 "/>
<polygon points="424.23,203.65 411.77,223.31 409.11,223.31 413.13,217.32 410.89,203.65 413.58,203.65 415.18,214.29   421.64,203.65 "/>
<polygon points="371.18,203.65 364.14,218.01 361.84,218.01 360.77,206.94 354.64,218.01 352.35,218.01 351.85,203.65   354.45,203.65 354.5,214.77 360.57,203.65 362.62,203.65 363.67,214.77 368.68,203.65 "/>
<polygon points="333.6,218.01 331.11,218.01 335.7,198 338.19,198 "/>
<path d="M447.29,207.04l0.62-2.7c0,0-1.6-1.04-4.33-1.04c-3.69,0-6.64,2.26-6.64,5.23c0,2.61,2.49,3.12,4.43,3.51  c2.09,0.42,2.55,0.95,2.33,2.22c-0.21,1.21-1.77,2.05-3.63,2.05c-3.08,0-4.61-1.98-4.61-1.98l-0.65,2.82c0,0,2,1.21,4.76,1.21  c2.76,0,5.64-1.14,6.63-4.25c0.95-2.98-0.82-3.9-3.81-4.42c-1.45-0.25-3.05-0.6-2.76-2.14c0.31-1.63,1.73-2.2,3.71-2.2  C445.79,205.35,447.29,207.04,447.29,207.04"/>
</svg>