<svg xmlns="http://www.w3.org/2000/svg" width="426.348" height="317.68" viewBox="0 0 426.348 317.68">
  <g id="Done-rafiki_1_" data-name="Done-rafiki (1)" transform="translate(0 -55)">
    <g id="freepik--background-complete--inject-192" transform="translate(0 55)">
      <rect id="Rectangle_1025" data-name="Rectangle 1025" width="426.348" height="0.213" transform="translate(0 279.172)" fill="#ebebeb"/>
      <rect id="Rectangle_1026" data-name="Rectangle 1026" width="28.241" height="0.213" transform="translate(355.386 292.892)" fill="#ebebeb"/>
      <rect id="Rectangle_1027" data-name="Rectangle 1027" width="7.41" height="0.213" transform="translate(275.02 295.212)" fill="#ebebeb"/>
      <rect id="Rectangle_1028" data-name="Rectangle 1028" width="16.363" height="0.213" transform="translate(338.17 284.979)" fill="#ebebeb"/>
      <rect id="Rectangle_1029" data-name="Rectangle 1029" width="36.828" height="0.213" transform="translate(44.732 286.412)" fill="#ebebeb"/>
      <rect id="Rectangle_1030" data-name="Rectangle 1030" width="5.398" height="0.213" transform="translate(89.158 286.412)" fill="#ebebeb"/>
      <rect id="Rectangle_1031" data-name="Rectangle 1031" width="79.881" height="0.213" transform="translate(112.104 290.01)" fill="#ebebeb"/>
      <path id="Path_1665" data-name="Path 1665" d="M207.717,296.142H43.07a4.869,4.869,0,0,1-4.86-4.869V59.826A4.869,4.869,0,0,1,43.07,55H207.717a4.869,4.869,0,0,1,4.869,4.869v231.4A4.869,4.869,0,0,1,207.717,296.142ZM43.07,55.171a4.656,4.656,0,0,0-4.647,4.656V291.273a4.656,4.656,0,0,0,4.647,4.656H207.717a4.664,4.664,0,0,0,4.656-4.656V59.826a4.664,4.664,0,0,0-4.656-4.656Z" transform="translate(-5.629 -55)" fill="#ebebeb"/>
      <path id="Path_1666" data-name="Path 1666" d="M424.024,296.142H259.369a4.877,4.877,0,0,1-4.869-4.869V59.826A4.877,4.877,0,0,1,259.369,55H424.024a4.869,4.869,0,0,1,4.852,4.826V291.273A4.869,4.869,0,0,1,424.024,296.142ZM259.369,55.171a4.664,4.664,0,0,0-4.656,4.656V291.273a4.664,4.664,0,0,0,4.656,4.656H424.024a4.664,4.664,0,0,0,4.656-4.656V59.826a4.664,4.664,0,0,0-4.656-4.656Z" transform="translate(-37.489 -55)" fill="#ebebeb"/>
      <rect id="Rectangle_1032" data-name="Rectangle 1032" width="60.755" height="206.105" transform="translate(79.505 9.166)" fill="#fafafa"/>
      <path id="Path_1667" data-name="Path 1667" d="M149.607,65.75h-3.547l-21.189,206.1h3.547Z" transform="translate(-18.394 -56.584)" fill="#f5f5f5"/>
      <rect id="Rectangle_1033" data-name="Rectangle 1033" width="60.072" height="1.816" transform="translate(79.113 9.959)" fill="#e0e0e0"/>
      <rect id="Rectangle_1034" data-name="Rectangle 1034" width="60.072" height="3.888" transform="translate(79.113 213.464)" fill="#ebebeb"/>
      <rect id="Rectangle_1035" data-name="Rectangle 1035" width="56.764" height="0.171" transform="translate(81.424 217.182)" fill="#ebebeb"/>
      <path id="Path_1668" data-name="Path 1668" d="M94.9,66.24h56.764V273.462h3.4V63.69H91.5V273.462h3.4Z" transform="translate(-13.478 -56.28)" fill="#ebebeb"/>
      <rect id="Rectangle_1036" data-name="Rectangle 1036" width="60.755" height="206.105" transform="translate(147.116 9.166)" fill="#fafafa"/>
      <path id="Path_1669" data-name="Path 1669" d="M217,65.75H197.639l-21.189,206.1h19.365Z" transform="translate(-25.992 -56.584)" fill="#f5f5f5"/>
      <rect id="Rectangle_1037" data-name="Rectangle 1037" width="61.778" height="1.816" transform="translate(146.723 9.959)" fill="#e0e0e0"/>
      <rect id="Rectangle_1038" data-name="Rectangle 1038" width="61.778" height="3.888" transform="translate(146.723 213.464)" fill="#ebebeb"/>
      <rect id="Rectangle_1039" data-name="Rectangle 1039" width="56.764" height="0.171" transform="translate(149.034 217.182)" fill="#ebebeb"/>
      <path id="Path_1670" data-name="Path 1670" d="M174.192,66.24h56.764V273.462h3.394V63.69H170.79V273.462h3.4Z" transform="translate(-25.158 -56.28)" fill="#ebebeb"/>
      <rect id="Rectangle_1040" data-name="Rectangle 1040" width="59.049" height="206.105" transform="translate(214.717 9.166)" fill="#fafafa"/>
      <path id="Path_1671" data-name="Path 1671" d="M286.777,65.75h-3.547l-21.189,206.1h3.547Z" transform="translate(-38.6 -56.584)" fill="#f5f5f5"/>
      <rect id="Rectangle_1041" data-name="Rectangle 1041" width="60.072" height="1.816" transform="translate(214.333 9.959)" fill="#e0e0e0"/>
      <rect id="Rectangle_1042" data-name="Rectangle 1042" width="60.072" height="3.888" transform="translate(214.333 213.464)" fill="#ebebeb"/>
      <rect id="Rectangle_1043" data-name="Rectangle 1043" width="56.764" height="0.171" transform="translate(216.644 217.182)" fill="#ebebeb"/>
      <path id="Path_1672" data-name="Path 1672" d="M253.482,66.24h56.755V273.462h3.4V63.69H250.08V273.462h3.4Z" transform="translate(-36.838 -56.28)" fill="#ebebeb"/>
      <rect id="Rectangle_1044" data-name="Rectangle 1044" width="60.755" height="206.105" transform="translate(282.327 9.166)" fill="#fafafa"/>
      <path id="Path_1673" data-name="Path 1673" d="M388.373,65.75H369.008l-21.2,206.1h19.373Z" transform="translate(-51.234 -56.584)" fill="#f5f5f5"/>
      <rect id="Rectangle_1045" data-name="Rectangle 1045" width="60.072" height="1.816" transform="translate(281.935 9.959)" fill="#e0e0e0"/>
      <rect id="Rectangle_1046" data-name="Rectangle 1046" width="60.072" height="3.888" transform="translate(281.935 213.464)" fill="#ebebeb"/>
      <path id="Path_1674" data-name="Path 1674" d="M332.764,66.24h56.764V273.462h3.4V63.69H329.37V273.462h3.394Z" transform="translate(-48.518 -56.28)" fill="#ebebeb"/>
      <rect id="Rectangle_1047" data-name="Rectangle 1047" width="56.764" height="0.171" transform="translate(284.246 217.182)" fill="#ebebeb"/>
      <rect id="Rectangle_1048" data-name="Rectangle 1048" width="26.374" height="45.611" transform="translate(99.348 167.862)" fill="#ebebeb"/>
      <path id="Path_1675" data-name="Path 1675" d="M138.694,244.38v11.443H122.45V244.38Z" transform="translate(-18.037 -82.897)" fill="#ebebeb"/>
      <rect id="Rectangle_1049" data-name="Rectangle 1049" width="3.377" height="3.377" transform="translate(124.033 172.927) rotate(180)" fill="#fafafa"/>
      <rect id="Rectangle_1050" data-name="Rectangle 1050" width="3.377" height="3.377" transform="translate(117.501 172.927) rotate(180)" fill="#fafafa"/>
      <rect id="Rectangle_1051" data-name="Rectangle 1051" width="3.377" height="3.377" transform="translate(110.961 172.927) rotate(180)" fill="#fafafa"/>
      <rect id="Rectangle_1052" data-name="Rectangle 1052" width="3.377" height="3.377" transform="translate(104.421 172.927) rotate(180)" fill="#f0f0f0"/>
      <rect id="Rectangle_1053" data-name="Rectangle 1053" width="3.377" height="3.377" transform="translate(124.033 179.058) rotate(180)" fill="#f0f0f0"/>
      <rect id="Rectangle_1054" data-name="Rectangle 1054" width="3.377" height="3.377" transform="translate(117.501 179.058) rotate(180)" fill="#f0f0f0"/>
      <rect id="Rectangle_1055" data-name="Rectangle 1055" width="3.377" height="3.377" transform="translate(110.961 179.058) rotate(180)" fill="#fafafa"/>
      <rect id="Rectangle_1056" data-name="Rectangle 1056" width="3.377" height="3.377" transform="translate(104.421 179.058) rotate(180)" fill="#fafafa"/>
      <rect id="Rectangle_1057" data-name="Rectangle 1057" width="3.377" height="3.377" transform="translate(124.033 185.197) rotate(180)" fill="#f0f0f0"/>
      <rect id="Rectangle_1058" data-name="Rectangle 1058" width="3.377" height="3.377" transform="translate(117.501 185.197) rotate(180)" fill="#fafafa"/>
      <rect id="Rectangle_1059" data-name="Rectangle 1059" width="3.377" height="3.377" transform="translate(110.961 185.197) rotate(180)" fill="#fafafa"/>
      <rect id="Rectangle_1060" data-name="Rectangle 1060" width="3.377" height="3.377" transform="translate(117.501 167.623) rotate(180)" fill="#fafafa"/>
      <rect id="Rectangle_1061" data-name="Rectangle 1061" width="3.377" height="3.377" transform="translate(110.961 167.623) rotate(180)" fill="#f0f0f0"/>
      <rect id="Rectangle_1062" data-name="Rectangle 1062" width="3.377" height="3.377" transform="translate(104.421 185.197) rotate(180)" fill="#f0f0f0"/>
      <rect id="Rectangle_1063" data-name="Rectangle 1063" width="3.377" height="3.377" transform="translate(124.033 191.336) rotate(180)" fill="#fafafa"/>
      <rect id="Rectangle_1064" data-name="Rectangle 1064" width="3.377" height="3.377" transform="translate(117.501 191.336) rotate(180)" fill="#f0f0f0"/>
      <rect id="Rectangle_1065" data-name="Rectangle 1065" width="3.377" height="3.377" transform="translate(110.961 191.336) rotate(180)" fill="#f0f0f0"/>
      <rect id="Rectangle_1066" data-name="Rectangle 1066" width="3.377" height="3.377" transform="translate(104.421 191.336) rotate(180)" fill="#fafafa"/>
      <rect id="Rectangle_1067" data-name="Rectangle 1067" width="3.377" height="3.377" transform="translate(124.033 197.476) rotate(180)" fill="#f0f0f0"/>
      <rect id="Rectangle_1068" data-name="Rectangle 1068" width="3.377" height="3.377" transform="translate(117.501 197.476) rotate(180)" fill="#fafafa"/>
      <rect id="Rectangle_1069" data-name="Rectangle 1069" width="3.377" height="3.377" transform="translate(110.961 197.476) rotate(180)" fill="#fafafa"/>
      <rect id="Rectangle_1070" data-name="Rectangle 1070" width="3.377" height="3.377" transform="translate(104.421 197.476) rotate(180)" fill="#f0f0f0"/>
      <rect id="Rectangle_1071" data-name="Rectangle 1071" width="3.377" height="3.377" transform="translate(124.033 203.607) rotate(180)" fill="#f0f0f0"/>
      <rect id="Rectangle_1072" data-name="Rectangle 1072" width="3.377" height="3.377" transform="translate(117.501 203.607) rotate(180)" fill="#fafafa"/>
      <rect id="Rectangle_1073" data-name="Rectangle 1073" width="3.377" height="3.377" transform="translate(110.961 203.607) rotate(180)" fill="#f0f0f0"/>
      <rect id="Rectangle_1074" data-name="Rectangle 1074" width="3.377" height="3.377" transform="translate(104.421 203.607) rotate(180)" fill="#fafafa"/>
      <rect id="Rectangle_1075" data-name="Rectangle 1075" width="3.377" height="3.377" transform="translate(124.033 209.746) rotate(180)" fill="#fafafa"/>
      <rect id="Rectangle_1076" data-name="Rectangle 1076" width="3.377" height="3.377" transform="translate(117.501 209.746) rotate(180)" fill="#fafafa"/>
      <rect id="Rectangle_1077" data-name="Rectangle 1077" width="3.377" height="3.377" transform="translate(110.961 209.746) rotate(180)" fill="#f0f0f0"/>
      <rect id="Rectangle_1078" data-name="Rectangle 1078" width="3.377" height="3.377" transform="translate(104.421 209.746) rotate(180)" fill="#f0f0f0"/>
      <rect id="Rectangle_1079" data-name="Rectangle 1079" width="23.628" height="28.992" transform="translate(287.896 184.472)" fill="#f0f0f0"/>
      <path id="Path_1676" data-name="Path 1676" d="M340.04,275.12h8.518v3.019H340.04Z" transform="translate(-50.089 -87.425)" fill="#e6e6e6"/>
      <path id="Path_1677" data-name="Path 1677" d="M340.04,281.99h8.518v3.027H340.04Z" transform="translate(-50.089 -88.437)" fill="#fafafa"/>
      <path id="Path_1678" data-name="Path 1678" d="M340.04,288.86h8.518v3.027H340.04Z" transform="translate(-50.089 -89.449)" fill="#e6e6e6"/>
      <path id="Path_1679" data-name="Path 1679" d="M340.04,295.73h8.518v3.027H340.04Z" transform="translate(-50.089 -90.461)" fill="#fafafa"/>
      <path id="Path_1680" data-name="Path 1680" d="M352.93,275.12h8.518v3.019H352.93Z" transform="translate(-51.988 -87.425)" fill="#fafafa"/>
      <path id="Path_1681" data-name="Path 1681" d="M352.93,281.99h8.518v3.027H352.93Z" transform="translate(-51.988 -88.437)" fill="#fafafa"/>
      <path id="Path_1682" data-name="Path 1682" d="M352.93,288.86h8.518v3.027H352.93Z" transform="translate(-51.988 -89.449)" fill="#e6e6e6"/>
      <path id="Path_1683" data-name="Path 1683" d="M352.93,295.73h8.518v3.027H352.93Z" transform="translate(-51.988 -90.461)" fill="#fafafa"/>
      <rect id="Rectangle_1080" data-name="Rectangle 1080" width="21.471" height="18.017" transform="translate(176.192 195.455)" fill="#f0f0f0"/>
      <rect id="Rectangle_1081" data-name="Rectangle 1081" width="2.746" height="2.746" transform="translate(196.29 200.452) rotate(180)" fill="#fafafa"/>
      <rect id="Rectangle_1082" data-name="Rectangle 1082" width="2.746" height="2.746" transform="translate(190.97 200.452) rotate(180)" fill="#fafafa"/>
      <rect id="Rectangle_1083" data-name="Rectangle 1083" width="2.746" height="2.746" transform="translate(185.64 200.452) rotate(180)" fill="#fafafa"/>
      <rect id="Rectangle_1084" data-name="Rectangle 1084" width="2.746" height="2.746" transform="translate(180.319 200.452) rotate(180)" fill="#fafafa"/>
      <rect id="Rectangle_1085" data-name="Rectangle 1085" width="2.746" height="2.746" transform="translate(196.29 205.44) rotate(180)" fill="#fafafa"/>
      <rect id="Rectangle_1086" data-name="Rectangle 1086" width="2.746" height="2.746" transform="translate(190.97 205.44) rotate(180)" fill="#fafafa"/>
      <rect id="Rectangle_1087" data-name="Rectangle 1087" width="2.746" height="2.746" transform="translate(185.64 205.44) rotate(180)" fill="#fafafa"/>
      <rect id="Rectangle_1088" data-name="Rectangle 1088" width="2.746" height="2.746" transform="translate(180.319 205.44) rotate(180)" fill="#e6e6e6"/>
      <rect id="Rectangle_1089" data-name="Rectangle 1089" width="2.746" height="2.746" transform="translate(196.29 210.437) rotate(180)" fill="#e6e6e6"/>
      <rect id="Rectangle_1090" data-name="Rectangle 1090" width="2.746" height="2.746" transform="translate(190.97 210.437) rotate(180)" fill="#e6e6e6"/>
      <rect id="Rectangle_1091" data-name="Rectangle 1091" width="2.746" height="2.746" transform="translate(185.64 210.437) rotate(180)" fill="#fafafa"/>
      <rect id="Rectangle_1092" data-name="Rectangle 1092" width="2.746" height="2.746" transform="translate(180.319 210.437) rotate(180)" fill="#e6e6e6"/>
      <rect id="Rectangle_1093" data-name="Rectangle 1093" width="21.471" height="31.337" transform="translate(151.814 182.136)" fill="#f0f0f0"/>
      <rect id="Rectangle_1094" data-name="Rectangle 1094" width="8.075" height="7.742" transform="translate(163.837 183.509)" fill="#fafafa"/>
      <rect id="Rectangle_1095" data-name="Rectangle 1095" width="8.075" height="7.742" transform="translate(153.187 183.509)" fill="#fafafa"/>
      <rect id="Rectangle_1096" data-name="Rectangle 1096" width="8.075" height="7.742" transform="translate(163.837 193.494)" fill="#fafafa"/>
      <rect id="Rectangle_1097" data-name="Rectangle 1097" width="8.075" height="7.742" transform="translate(153.187 193.494)" fill="#fafafa"/>
      <rect id="Rectangle_1098" data-name="Rectangle 1098" width="8.075" height="7.742" transform="translate(163.837 203.479)" fill="#fafafa"/>
      <rect id="Rectangle_1099" data-name="Rectangle 1099" width="8.075" height="7.742" transform="translate(153.187 203.479)" fill="#fafafa"/>
    </g>
    <g id="freepik--Shadow--inject-192" transform="translate(47.845 353.375)">
      <ellipse id="freepik--path--inject-192" cx="165.329" cy="9.653" rx="165.329" ry="9.653" fill="#f5f5f5"/>
    </g>
    <g id="freepik--Sheet--inject-192" transform="translate(225.674 75.985)">
      <path id="Path_1684" data-name="Path 1684" d="M418.068,79.61v187.8l-22.6,22.6H264.66V79.61Z" transform="translate(-264.66 -79.61)" fill="#35b6b4"/>
      <path id="Path_1685" data-name="Path 1685" d="M418.068,79.61v187.8l-22.6,22.6H264.66V79.61Z" transform="translate(-264.66 -79.61)" fill="#fff" opacity="0.8"/>
      <path id="Path_1686" data-name="Path 1686" d="M418.07,322.561V300.63h22.6l-22.153,22.153" transform="translate(-287.258 -112.167)" opacity="0.2"/>
      <path id="Path_1687" data-name="Path 1687" d="M325.043,100.224H282.733a2.243,2.243,0,0,1-2.243-2.243h0a2.243,2.243,0,0,1,2.243-2.251h42.311a2.251,2.251,0,0,1,2.243,2.251h0A2.243,2.243,0,0,1,325.043,100.224Z" transform="translate(-266.992 -81.985)" opacity="0.1"/>
      <path id="Path_1688" data-name="Path 1688" d="M404.732,121.564h-102a2.243,2.243,0,0,1-2.243-2.251h0a2.243,2.243,0,0,1,2.243-2.243h102a2.243,2.243,0,0,1,2.243,2.243h0a2.251,2.251,0,0,1-2.243,2.251Z" transform="translate(-269.938 -85.128)" opacity="0.1"/>
      <path id="Path_1689" data-name="Path 1689" d="M401.786,131.934H282.733a2.243,2.243,0,0,1-2.243-2.243h0a2.243,2.243,0,0,1,2.243-2.251H401.786a2.251,2.251,0,0,1,2.243,2.251h0a2.243,2.243,0,0,1-2.243,2.243Z" transform="translate(-266.992 -86.656)" opacity="0.1"/>
      <path id="Path_1690" data-name="Path 1690" d="M401.786,143.654H282.733a2.243,2.243,0,0,1-2.243-2.251h0a2.243,2.243,0,0,1,2.243-2.243H401.786a2.243,2.243,0,0,1,2.243,2.243h0A2.251,2.251,0,0,1,401.786,143.654Z" transform="translate(-266.992 -88.382)" opacity="0.1"/>
      <path id="Path_1691" data-name="Path 1691" d="M401.786,155.365H282.733a2.243,2.243,0,0,1-2.243-2.243h0a2.243,2.243,0,0,1,2.243-2.243H401.786a2.243,2.243,0,0,1,2.243,2.243h0a2.243,2.243,0,0,1-2.243,2.243Z" transform="translate(-266.992 -90.108)" opacity="0.1"/>
      <path id="Path_1692" data-name="Path 1692" d="M401.786,167.085H282.733a2.243,2.243,0,0,1-2.243-2.243h0a2.234,2.234,0,0,1,2.243-2.243H401.786a2.243,2.243,0,0,1,2.243,2.243h0a2.243,2.243,0,0,1-2.243,2.243Z" transform="translate(-266.992 -91.835)" opacity="0.1"/>
      <path id="Path_1693" data-name="Path 1693" d="M401.786,178.8H282.733a2.243,2.243,0,0,1-2.243-2.243h0a2.243,2.243,0,0,1,2.243-2.251H401.786a2.251,2.251,0,0,1,2.243,2.251h0a2.243,2.243,0,0,1-2.243,2.243Z" transform="translate(-266.992 -93.56)" opacity="0.1"/>
      <rect id="Rectangle_1100" data-name="Rectangle 1100" width="123.547" height="4.494" rx="2.247" transform="translate(13.498 90.744)" opacity="0.1"/>
      <path id="Path_1694" data-name="Path 1694" d="M401.786,202.225H282.733a2.243,2.243,0,0,1-2.243-2.243h0a2.243,2.243,0,0,1,2.243-2.243H401.786a2.243,2.243,0,0,1,2.243,2.243h0a2.243,2.243,0,0,1-2.243,2.243Z" transform="translate(-266.992 -97.011)" opacity="0.1"/>
      <path id="Path_1695" data-name="Path 1695" d="M401.786,213.955H282.733a2.243,2.243,0,0,1-2.243-2.243h0a2.234,2.234,0,0,1,2.243-2.243H401.786a2.243,2.243,0,0,1,2.243,2.243h0a2.243,2.243,0,0,1-2.243,2.243Z" transform="translate(-266.992 -98.739)" opacity="0.1"/>
      <path id="Path_1696" data-name="Path 1696" d="M401.786,225.674H282.733a2.243,2.243,0,0,1-2.243-2.243h0a2.243,2.243,0,0,1,2.243-2.251H401.786a2.251,2.251,0,0,1,2.243,2.251h0a2.243,2.243,0,0,1-2.243,2.243Z" transform="translate(-266.992 -100.464)" opacity="0.1"/>
      <path id="Path_1697" data-name="Path 1697" d="M401.786,237.394H282.733a2.243,2.243,0,0,1-2.243-2.251h0a2.243,2.243,0,0,1,2.243-2.243H401.786a2.243,2.243,0,0,1,2.243,2.243h0A2.251,2.251,0,0,1,401.786,237.394Z" transform="translate(-266.992 -102.19)" opacity="0.1"/>
      <path id="Path_1698" data-name="Path 1698" d="M333.57,249.105H282.733a2.243,2.243,0,0,1-2.243-2.243h0a2.243,2.243,0,0,1,2.243-2.243H333.57a2.243,2.243,0,0,1,2.243,2.243h0a2.243,2.243,0,0,1-2.243,2.243Z" transform="translate(-266.992 -103.917)" opacity="0.1"/>
      <path id="Path_1699" data-name="Path 1699" d="M392.181,131.729l-.162-.136c-.46-.35-.725-.23-.938-.9-.153-.486,0-1.032-.179-1.535a21.225,21.225,0,0,0-1.39-2.507l-2.1-3.777a3.624,3.624,0,0,0-4.92-1.4l-19.314,10.761c-.077.648-.614,1.091-.725,1.705a1.066,1.066,0,0,0,.324,1.006,1,1,0,0,1-.6-.213c-1.151-.64-1.458-1.151-2.643-.5-.512.273-1.015.563-1.518.853l-5.116,2.857-16.031,8.928-18.759,10.471-15.63,8.706c-2.132,1.185-4.715,2.226-6.617,3.735.529.273.622.691.153,1.1l-.853.776c0,.213.307.213.5.128l1.057-.452a10.7,10.7,0,0,1-2.618,2.379,21.318,21.318,0,0,1-5.355,2.2l.9-1.134c.068-.094.153-.213.094-.324s-.171-.119-.273-.128c-.452-.051-.9,0-1.236-.333-2.916,1.705-5.969,3.326-8.936,4.98a3.624,3.624,0,0,0-1.4,4.92l19.476,34.961a3.607,3.607,0,0,0,4.912,1.4l5.125-2.891c0-.605.478-1.279.119-1.833a.486.486,0,0,1-.094-.23c0-.111.1-.2.2-.256a3.649,3.649,0,0,1,1.748-.563c.213,0,.495.094.46.3,0-.188,1.1-.58,1.279-.64.085.46-.23.955.307,1.049s1.356-.853,1.705-1.023l5.116-2.857,16.2-9.013,17.77-9.9,11.81-6.583c.426-.247.929-.537,1.339-.742A3.957,3.957,0,0,1,366.472,183c.853-.588,2.2.06,2.908-.776.136-.162.222-.358.341-.529a2.84,2.84,0,0,1,.853-.674,1.339,1.339,0,0,1,.716-.281c.256,0,.529.213.495.469,1.757-.409,3.343-1.595,4.894-2.473.563-.315,5.5-2.635,5.483-3-.068-1.134.622-2.106.588-3.274,0-.222-.435-1.705-.239-1.816-4.434,2.643-9.039,5.048-13.558,7.555-.153.094-.733.29-.853.46,0,0-.043.077-.06.119l-.128.281v.068a16.072,16.072,0,0,1-.648,1.705c0,.077-.964,1.271-1.04.989-.375-1.373-.853-1.586-1.9-1.023l-1.5.853-4.767,2.652L342,193.26,323.079,203.8l-15.766,8.783-6.608,3.675q-1.978-3.581-3.982-7.154l-2.558-4.6a5.211,5.211,0,0,0-1.126-1.705c-.367-.273-.989-.2-1.313-.452-.793-.605-1.364-1.705-2.115-2.413a3.718,3.718,0,0,1-1.074-2.7c.256.1.512.213.767.29a2.66,2.66,0,0,1,.085-1.586c-2.558-4.306-4.912-8.808-7.359-13.208l-.162-.281,5.969-3.326,4.357-2.43a15.094,15.094,0,0,0,2.558-1.407c.554-.478,1.117-1.074,1.705-1.586a6.207,6.207,0,0,1,1.279-.75l1.612-.784a.605.605,0,0,1,.273-.085,1.125,1.125,0,0,1,.281.068c.853.179,2.967-1.4,3.735-1.825l4.963-2.763,14.973-8.348,18.657-10.386L360.9,138.414l15.025-8.365,7.674-4.263.358-.2,8.3,14.9a5.27,5.27,0,0,0,2.345,2.319c.341.111.725.35.682.7s-.554.64-.435,1,.776.222.929.546-.264.853-.213,1.3a5.117,5.117,0,0,0,.776,1.475l2.413,4.34c1.347,2.4,2.686,4.818,4.042,7.248l-14.752,8.22a.725.725,0,0,1,.179.213l.077.2a6.285,6.285,0,0,1,.853.375.733.733,0,0,1,.375.665.75.75,0,0,1-.392.648l-.9.512a.989.989,0,0,1-.776.81,1.894,1.894,0,0,1-.315,0,.767.767,0,0,1-.631.128.784.784,0,0,1-.529-.947,1.149,1.149,0,0,1,.136-.247.767.767,0,0,1,.051-.793H385.9a1.59,1.59,0,0,1-.435-.128,4.264,4.264,0,0,0-1.705,2.012.23.23,0,0,0-.051.162c0,.119.188.128.3.179.256.119.2.495.068.742s-.281.563-.111.784a1.6,1.6,0,0,0,.213.2c.367.418-.2,1.629.7,1.134a1.066,1.066,0,0,1,.111-.776,1.143,1.143,0,0,1,.657-.486,10.692,10.692,0,0,1,2.021-.29l17.779-9.942a3.624,3.624,0,0,0,1.4-4.92l-.1-.179L398.7,143.266l-4.639-8.339c-.452-.793-.853-1.62-1.347-2.4A3.036,3.036,0,0,0,392.181,131.729Z" transform="translate(-266.545 -85.709)" fill="#35b6b4"/>
      <path id="Path_1700" data-name="Path 1700" d="M313.976,188.324c-.588-.716-.409-.733-.52-1.5v-.051l-.068-.077-.1-.119c-.4.179-.8.375-1.2.6l-7.853,4.374,3.163,5.67c-.443-.784,1.126-.554,1.185-.563a2.141,2.141,0,0,1,.512-.085.674.674,0,0,1,.418.281,2.6,2.6,0,0,1,.273,1.893c-.094.853.358,1.705-.128,2.558.418.682,4.2,7.555,4.212,7.546l7.853-4.374c.452-.256,1.526-.708,1.791-1.16s-.153-1.16.315-1.373a1.262,1.262,0,0,1,1.083.1,9.5,9.5,0,0,0,1.526-11.528c-2.209-3.965-7.222-6.327-11.614-4.485-.307.128.1,1.5-.631,1.654a2.021,2.021,0,0,1,.588-.7m4.894,14.274-3.658,2.038c-.3-.537-.588-1.074-.9-1.595.384.648-.674.443-.9.3-.537-.358-.682-1.39-.7-1.97a5.235,5.235,0,0,0-.853-2.8q-1.288-2.328-2.558-4.656l3.658-2.038c3.411-1.91,6.822-1.117,8.663,2.191S323.109,199.375,319.672,201.259Z" transform="translate(-270.489 -95.193)" fill="#35b6b4"/>
      <path id="Path_1701" data-name="Path 1701" d="M343.881,171.784a2.115,2.115,0,0,1,.154,1.3c-.043.239-.426.853-.375,1.006.136.341.273.682.4,1.023a.571.571,0,0,0,.094.153.4.4,0,0,0,.222.068c1.356.119,1.3.256,1.381,1.4.077.981.921,1.543,1.4,2.4a6.25,6.25,0,0,1-7.674,8.936.9.9,0,0,1-.1.085.853.853,0,0,1-.58.068,2.558,2.558,0,0,1-1.8-1.9.554.554,0,0,1,0-.2,6.428,6.428,0,0,1-.64-.955,6.029,6.029,0,0,1,2.328-8.527,6.216,6.216,0,0,1,3.513-.8l-.068-.1c-.733-.972,1.91-1.364.716-2.021-.5-.273-.418-1.509-.546-2.012a11.69,11.69,0,0,0-5.517,1.526c-5.457,3.044-7.342,9.073-4.477,14.214a10.028,10.028,0,0,0,5.585,4.7,4.98,4.98,0,0,0,1.774.409c.7-.06.358,0,.657-.418s.119-.6.571-1.04.981-.708,1.074-1.39c0,.307.341.529.341.853v.273a.58.58,0,0,0,.145.3c.29.392.776.853.784,1.3a10.087,10.087,0,0,0,3.53-1.3c5.432-3.027,7.359-9.047,4.477-14.206C349.756,174.282,346.951,171.954,343.881,171.784Z" transform="translate(-274.429 -93.174)" fill="#35b6b4"/>
      <path id="Path_1702" data-name="Path 1702" d="M364.5,157.494l5.849,10.5-14.445-5.713-3.308,1.85c2.234,4.008,4.6,7.973,6.7,12.057.145-.443.486-.529.9-.588.767-.1.742.281,1.16,1.04.051.094.111.188.2.2s.281-.136.435-.119.213.2.171.35a1.808,1.808,0,0,1-.213.4c-.247.469.162.767.111,1.194,0,.222-.742,1.126-.657,1.279l.853,1.467,3.957-2.2-1.057-1.893h-.2c-1.151.153-.64-1.356-.9-1.978a22.886,22.886,0,0,0-1.407-2.558l-2.328-4.1,11.742,4.622a2.422,2.422,0,0,1,.119-1c.094-.179.853-.512.853-.682a2.115,2.115,0,0,0,.716,1.424c.452.4.452.341.367,1.049l.7.281,3.291-1.833-9.635-17.284Z" transform="translate(-277.614 -90.754)" fill="#35b6b4"/>
      <path id="Path_1703" data-name="Path 1703" d="M387.843,163.223l-2.234-4,8.032-4.477-1.705-3.112-8.024,4.477-2.089-3.76,5.423-3.019a2.558,2.558,0,0,1,.853-.708.768.768,0,0,1,.546-.06l2.294-1.271s-1.629-2.908-1.782-3.215c-.785.358,0,1.347-.793,1.825.162.171.4.776,0,.853-.23,0-.4-.29-.631-.264s-.239.136-.358.1a.247.247,0,0,1-.162-.145,3.565,3.565,0,0,0-.418-.725c-.537-.52-5.44,2.746-6.122,3.129l-4.562,2.558,9.627,17.284,3.846-2.14.077-.1c.281-.358.554-.725.853-1.057a.776.776,0,0,1,.921-.111.58.58,0,0,1,.179.145l7.512-4.187-1.791-3.215Z" transform="translate(-281.077 -89.107)" fill="#35b6b4"/>
    </g>
    <g id="freepik--Plant--inject-192" transform="translate(317.508 248.275)">
      <path id="Path_1704" data-name="Path 1704" d="M397.548,367.4s-5.611-12.228.793-24.293,8.271-14.905,4.187-17.369-5.969,9.644-5.969,9.644-3.411-8.339-.605-17.054,4.63-22.937.75-24.464-.742,17.728-4.11,24.293a56.593,56.593,0,0,1-3.3-14.317c-.46-7.009.264-18.2-2.805-21.07s-5.022-.853-2.012,14.581A162.346,162.346,0,0,1,387.47,325.4s-6.66-20.294-11.085-20.882-4.46,5.969-.631,11.673,11.162,15.9,12.364,21.189c0,0-7.3-15.263-13.873-10.591s5.722,13.907,11.2,17.242,9.286,24.217,9.286,24.217Z" transform="translate(-372.358 -281.663)" fill="#35b6b4"/>
      <path id="Path_1705" data-name="Path 1705" d="M397.548,367.4s-5.611-12.228.793-24.293,8.271-14.905,4.187-17.369-5.969,9.644-5.969,9.644-3.411-8.339-.605-17.054,4.63-22.937.75-24.464-.742,17.728-4.11,24.293a56.593,56.593,0,0,1-3.3-14.317c-.46-7.009.264-18.2-2.805-21.07s-5.022-.853-2.012,14.581A162.346,162.346,0,0,1,387.47,325.4s-6.66-20.294-11.085-20.882-4.46,5.969-.631,11.673,11.162,15.9,12.364,21.189c0,0-7.3-15.263-13.873-10.591s5.722,13.907,11.2,17.242,9.286,24.217,9.286,24.217Z" transform="translate(-372.358 -281.663)" opacity="0.2"/>
      <path id="Path_1706" data-name="Path 1706" d="M395.387,373.257s5.466-12.321-1.083-24.285-8.45-14.777-4.391-17.31,6.071,9.559,6.071,9.559,3.343-8.382.4-17.054-4.9-22.869-1.04-24.447.955,17.719,4.4,24.225a56.278,56.278,0,0,0,3.121-14.359c.384-7.018-.478-18.2,2.558-21.113s5.022-.955,2.191,14.556a162.317,162.317,0,0,0-2.652,28.079s6.412-20.388,10.872-21.044,4.528,5.909.776,11.665-11,16.073-12.151,21.317c0,0,7.12-15.349,13.745-10.787s-5.551,13.984-10.983,17.395-9.022,24.37-9.022,24.37Z" transform="translate(-374.631 -282.499)" fill="#35b6b4"/>
      <path id="Path_1707" data-name="Path 1707" d="M418.448,377.8H373.34l3.65,32.283H414.8Z" transform="translate(-372.503 -295.825)" fill="#263238"/>
    </g>
    <g id="freepik--speech-bubble--inject-192" transform="translate(98.614 127.266)">
      <path id="Path_1708" data-name="Path 1708" d="M149.741,139.75H119.973a4.323,4.323,0,0,0-4.323,4.323v28.94a4.323,4.323,0,0,0,4.323,4.323H129.5l-6.412,8.715,11.085-8.715h15.562a4.323,4.323,0,0,0,4.323-4.323v-28.94a4.323,4.323,0,0,0-4.315-4.323Z" transform="translate(-115.65 -139.75)" fill="#35b6b4"/>
      <path id="Path_1709" data-name="Path 1709" d="M149.741,139.75H119.973a4.323,4.323,0,0,0-4.323,4.323v28.94a4.323,4.323,0,0,0,4.323,4.323H129.5l-6.412,8.715,11.085-8.715h15.562a4.323,4.323,0,0,0,4.323-4.323v-28.94a4.323,4.323,0,0,0-4.315-4.323Z" transform="translate(-115.65 -139.75)" fill="#fff" opacity="0.6"/>
      <circle id="Ellipse_10" data-name="Ellipse 10" cx="13.515" cy="13.515" r="13.515" transform="translate(5.696 5.278)" fill="#35b6b4"/>
      <circle id="Ellipse_11" data-name="Ellipse 11" cx="11.588" cy="11.588" r="11.588" transform="translate(5.267 27.401) rotate(-76.72)" opacity="0.2"/>
      <path id="Path_1710" data-name="Path 1710" d="M135.43,166.372a1.194,1.194,0,0,1-.853-.333l-4.92-4.818a1.188,1.188,0,0,1,1.654-1.705l4.033,3.948,6.975-7.785a1.185,1.185,0,0,1,1.765,1.577l-7.8,8.706a1.177,1.177,0,0,1-.853.392Z" transform="translate(-117.66 -142.045)" fill="#fff"/>
    </g>
    <g id="freepik--Character--inject-192" transform="translate(44.137 145.161)">
      <path id="Path_1711" data-name="Path 1711" d="M92.155,387.716l24.566-2.422v-27.7h9.738v27.7l24.668,2.43a4.775,4.775,0,0,1,4.315,4.758v3.692H87.84v-3.692a4.775,4.775,0,0,1,4.315-4.758Z" transform="translate(-57.077 -189.734)" fill="#263238"/>
      <path id="Path_1712" data-name="Path 1712" d="M92.155,387.716l24.566-2.422v-27.7h9.738v27.7l24.668,2.43a4.775,4.775,0,0,1,4.315,4.758v3.692H87.84v-3.692a4.775,4.775,0,0,1,4.315-4.758Z" transform="translate(-57.077 -189.734)" fill="#fff" opacity="0.1"/>
      <circle id="Ellipse_12" data-name="Ellipse 12" cx="6.37" cy="6.37" r="6.37" transform="translate(89.395 204.633)" fill="#263238"/>
      <circle id="Ellipse_13" data-name="Ellipse 13" cx="6.37" cy="6.37" r="6.37" transform="translate(26.995 204.633)" fill="#263238"/>
      <path id="Path_1713" data-name="Path 1713" d="M3.522,0H9.593a3.522,3.522,0,0,1,3.522,3.522V30.757H0V3.522A3.522,3.522,0,0,1,3.522,0Z" transform="translate(71.053 175.275) rotate(180)" fill="#263238"/>
      <path id="Path_1714" data-name="Path 1714" d="M3.522,0H9.593a3.522,3.522,0,0,1,3.522,3.522V30.757H0V3.522A3.522,3.522,0,0,1,3.522,0Z" transform="translate(71.053 175.275) rotate(180)" fill="#fff" opacity="0.2"/>
      <path id="Path_1715" data-name="Path 1715" d="M85.5,267.62s7.3,45.517,21.71,53.387H92.562S78.066,305.488,73.7,267.62Z" transform="translate(-54.994 -176.481)" fill="#263238"/>
      <path id="Path_1716" data-name="Path 1716" d="M85.5,267.62s7.3,45.517,21.71,53.387H92.562S78.066,305.488,73.7,267.62Z" transform="translate(-54.994 -176.481)" fill="#fff" opacity="0.1"/>
      <path id="Path_1717" data-name="Path 1717" d="M94.263,322.68h57.062a4.264,4.264,0,0,1,4.263,4.264v5.7H90v-5.7a4.263,4.263,0,0,1,4.263-4.263Z" transform="translate(-57.395 -184.592)" fill="#35b6b4"/>
      <rect id="Rectangle_1101" data-name="Rectangle 1101" width="71.055" height="4.98" rx="2.01" transform="translate(29.843 143.068)" fill="#263238"/>
      <rect id="Rectangle_1102" data-name="Rectangle 1102" width="71.055" height="4.98" rx="2.01" transform="translate(29.843 143.068)" fill="#fff" opacity="0.6"/>
      <path id="Path_1718" data-name="Path 1718" d="M68.737,272.663H92.178c6.873,0,11.332-5.508,9.968-12.3l-1.825-9.073a15.846,15.846,0,0,0-14.905-12.3H61.976c-6.873,0-11.332,5.508-9.968,12.3l1.825,9.073C55.2,267.137,61.865,272.663,68.737,272.663Z" transform="translate(-51.762 -172.264)" fill="#35b6b4"/>
      <path id="Path_1719" data-name="Path 1719" d="M215.338,365.236l-5.372,2.106L206.1,360.06l-3.513-6.625,5.952-3.564,3.6,8.126Z" transform="translate(-73.98 -188.597)" fill="#e4897b"/>
      <path id="Path_1720" data-name="Path 1720" d="M212.14,358,206.1,360.06l-3.513-6.625,5.952-3.564Z" transform="translate(-73.98 -188.597)" opacity="0.2"/>
      <path id="Path_1721" data-name="Path 1721" d="M194.938,342.74l-7.308,3.922S160.012,298.1,155.765,298.51,111.229,324.586,98.941,315.1s-.333-38.03-.333-38.03,25.419-7.265,28.139-1.705a42.418,42.418,0,0,1,1.825,5.116c.537,1.748.947,3.223.947,3.223h0c.776-.315,25.879-10.608,37.084-5.116C178.037,284.236,194.938,342.74,194.938,342.74Z" transform="translate(-57.895 -177.314)" fill="#263238"/>
      <path id="Path_1722" data-name="Path 1722" d="M194.938,342.74l-7.308,3.922S160.012,298.1,155.765,298.51,111.229,324.586,98.941,315.1s-.333-38.03-.333-38.03,25.419-7.265,28.139-1.705a42.418,42.418,0,0,1,1.825,5.116c.537,1.748.947,3.223.947,3.223h0c.776-.315,25.879-10.608,37.084-5.116C178.037,284.236,194.938,342.74,194.938,342.74Z" transform="translate(-57.895 -177.314)" fill="#fff" opacity="0.3"/>
      <path id="Path_1723" data-name="Path 1723" d="M164.923,398.333l-5.73-.657-.034-8.084-.009-7.418,6.932-.324-.614,8.723Z" transform="translate(-67.581 -193.308)" fill="#e4897b"/>
      <path id="Path_1724" data-name="Path 1724" d="M165.45,390.758l-6.31-1.006v-7.5l6.932-.367Z" transform="translate(-67.579 -193.313)" opacity="0.2"/>
      <path id="Path_1725" data-name="Path 1725" d="M199.72,355.585l10.693-5.355,1.117,4.536-8.1,4.178Z" transform="translate(-73.557 -188.65)" fill="#35b6b4"/>
      <path id="Path_1726" data-name="Path 1726" d="M122.16,318.927s1.757-.2,28.778-5.2c0,0,.614,34.551,1.893,60.311l8.322.264s11.938-57.131,10.531-65.794-11.673-9.8-11.673-9.8S142.181,312.6,122.16,318.927Z" transform="translate(-62.132 -181.061)" fill="#263238"/>
      <path id="Path_1727" data-name="Path 1727" d="M122.16,318.927s1.757-.2,28.778-5.2c0,0,.614,34.551,1.893,60.311l8.322.264s11.938-57.131,10.531-65.794-11.673-9.8-11.673-9.8S142.181,312.6,122.16,318.927Z" transform="translate(-62.132 -181.061)" fill="#fff" opacity="0.4"/>
      <path id="Path_1728" data-name="Path 1728" d="M122.16,318.927s1.757-.2,28.778-5.2c0,0,.614,34.551,1.893,60.311l8.322.264s11.938-57.131,10.531-65.794-11.673-9.8-11.673-9.8S142.181,312.6,122.16,318.927Z" transform="translate(-62.132 -181.061)" opacity="0.3"/>
      <path id="Path_1729" data-name="Path 1729" d="M156.34,384.3l11.349-.264-1.552,4.673-9.209.085Z" transform="translate(-67.167 -193.63)" fill="#35b6b4"/>
      <path id="Path_1730" data-name="Path 1730" d="M133.256,284.973l-14.726,5.244s7.742-5.781,13.78-8.467C132.847,283.5,133.256,284.973,133.256,284.973Z" transform="translate(-61.597 -178.562)" opacity="0.3"/>
      <path id="Path_1731" data-name="Path 1731" d="M97.51,274.53l.546,4.084,27.6-5.858-.64-4.826Z" transform="translate(-58.501 -176.527)" fill="#263238"/>
      <path id="Path_1732" data-name="Path 1732" d="M97.51,274.53l.546,4.084,27.6-5.858-.64-4.826Z" transform="translate(-58.501 -176.527)" opacity="0.2"/>
      <rect id="Rectangle_1103" data-name="Rectangle 1103" width="1.398" height="7.12" transform="translate(46.78 95.29) rotate(-10.51)" fill="#263238"/>
      <rect id="Rectangle_1104" data-name="Rectangle 1104" width="6.174" height="4.681" transform="matrix(0.976, -0.22, 0.22, 0.976, 54.168, 94.62)" fill="#fff"/>
      <rect id="Rectangle_1105" data-name="Rectangle 1105" width="1.393" height="7.094" transform="matrix(0.984, -0.181, 0.181, 0.984, 62.692, 90.664)" fill="#263238"/>
      <rect id="Rectangle_1106" data-name="Rectangle 1106" width="1.398" height="7.12" transform="translate(46.78 95.29) rotate(-10.51)" fill="#fff" opacity="0.3"/>
      <rect id="Rectangle_1107" data-name="Rectangle 1107" width="1.393" height="7.094" transform="matrix(0.984, -0.181, 0.181, 0.984, 62.692, 90.664)" fill="#fff" opacity="0.3"/>
      <path id="Path_1733" data-name="Path 1733" d="M227.206,377.573a7.606,7.606,0,0,0-2.771-.315h0s-3.47-1.45-7.674-8.348l-3.581.469a2.976,2.976,0,0,0-2.473,2.345,1.7,1.7,0,0,0,0,.512,20.108,20.108,0,0,0,.631,2.558,72.477,72.477,0,0,0,3.249,8.126l.58-.239-1.85-5.167c-.614-1.765,1.526-.273,2.66,1.433s2.746,3.36,6.574,1.91C227,379.117,228.767,378.2,227.206,377.573Z" transform="translate(-75.173 -191.401)" fill="#263238"/>
      <path id="Path_1734" data-name="Path 1734" d="M215.863,366.76s5.747,8.732,8.57,10.181c0,0-3.163,2.558-7.384-1.552-5.449-5.278-6.361-3.47-6.361-3.47a16.552,16.552,0,0,1,.145-3.1C211.267,366.82,215.863,366.76,215.863,366.76Z" transform="translate(-75.17 -191.085)" fill="#e4897b"/>
      <path id="Path_1735" data-name="Path 1735" d="M173.435,411.155a7.752,7.752,0,0,0-2.643-.938h0s-3.027-2.226-5.457-9.917l-3.59-.392a2.95,2.95,0,0,0-2.959,1.705,1.62,1.62,0,0,0-.153.486,19.164,19.164,0,0,0,0,2.618,71.215,71.215,0,0,0,1.228,8.663l.622-.094-.554-5.474c-.179-1.859,1.552.1,2.251,2.029s1.867,3.914,5.926,3.411C172.847,412.613,174.774,412.135,173.435,411.155Z" transform="translate(-67.498 -195.966)" fill="#263238"/>
      <path id="Path_1736" data-name="Path 1736" d="M164.917,397.95s3.513,9.849,5.909,11.938c0,0-3.675,1.705-6.822-3.257-4.05-6.421-5.355-4.877-5.355-4.877a16.475,16.475,0,0,1,.853-2.967C160.407,396.91,164.917,397.95,164.917,397.95Z" transform="translate(-67.507 -195.637)" fill="#e4897b"/>
      <path id="Path_1737" data-name="Path 1737" d="M87.845,192.6l-7.214,1.45a2.388,2.388,0,0,1-2.064.5c-2.149-.853-5.244-3.351-5.636-4.263-.58-1.288,0-5.065,1.518-5.747s6.745,5.628,6.745,5.628l7.751-1.748Z" transform="translate(-54.848 -164.235)" fill="#e4897b"/>
      <path id="Path_1738" data-name="Path 1738" d="M112.5,216.923s-.657-23.372-3.36-24.37-23.023,1.791-23.023,1.791l-.495-5.338s23.645-3.641,28.224-1.484,6.088,36.99,5.253,43.7Z" transform="translate(-56.75 -164.581)" fill="#35b6b4"/>
      <path id="Path_1739" data-name="Path 1739" d="M112.5,216.923s-.657-23.372-3.36-24.37-23.023,1.791-23.023,1.791l-.495-5.338s23.645-3.641,28.224-1.484,6.088,36.99,5.253,43.7Z" transform="translate(-56.75 -164.581)" fill="#fff" opacity="0.6"/>
      <path id="Path_1740" data-name="Path 1740" d="M86.365,195.1l-1.415-5.867,2.029-.733,1.288,6.779Z" transform="translate(-56.651 -164.826)" fill="#35b6b4"/>
      <path id="Path_1741" data-name="Path 1741" d="M86.365,195.1l-1.415-5.867,2.029-.733,1.288,6.779Z" transform="translate(-56.651 -164.826)" fill="#fff" opacity="0.7"/>
      <path id="Path_1742" data-name="Path 1742" d="M111.992,218.7s-1.816,7.111-10.565,9.38S83,224.422,83,224.422l1.927,16.969,10.71,26.732,27.372-7.137S121.371,229.887,111.992,218.7Z" transform="translate(-56.364 -169.275)" fill="#35b6b4"/>
      <path id="Path_1743" data-name="Path 1743" d="M111.992,218.7s-1.816,7.111-10.565,9.38S83,224.422,83,224.422l1.927,16.969,10.71,26.732,27.372-7.137S121.371,229.887,111.992,218.7Z" transform="translate(-56.364 -169.275)" fill="#fff" opacity="0.7"/>
      <rect id="Rectangle_1108" data-name="Rectangle 1108" width="4.707" height="7.691" rx="0.79" transform="translate(64.232 76.411) rotate(162.49)" fill="#35b6b4" opacity="0.6"/>
      <rect id="Rectangle_1109" data-name="Rectangle 1109" width="3.82" height="5.227" transform="translate(63.377 74.63) rotate(162.49)" opacity="0.2"/>
      <rect id="Rectangle_1110" data-name="Rectangle 1110" width="0.844" height="3.078" transform="translate(58.805 68.096) rotate(-17.51)" fill="#263238"/>
      <path id="Path_1744" data-name="Path 1744" d="M93.463,187.55c-6.745,0-11.2,7.146-9.618,18.478s7.9,14.6,7.9,14.6l-.4-2.737a64.293,64.293,0,0,0,21.394,1.194s-3.257-9.243-2.2-18.683C110.534,200.4,112.675,187.533,93.463,187.55Z" transform="translate(-56.441 -164.686)" fill="#263238"/>
      <path id="Path_1745" data-name="Path 1745" d="M108.467,226.976l2.754,10.232-4.843-3.692s4.715,10.778,5.969,17.054c0,0-4.076-10.684-7.589-16.542l-2.055,5.867-8.263-8.416S101.739,225.884,108.467,226.976Z" transform="translate(-58.049 -170.473)" opacity="0.2"/>
      <path id="Path_1746" data-name="Path 1746" d="M104.2,228.656l-8.408.256c3.726-4.767-3.01-13.072-3.01-13.072l8.305,1.8c1.978,8.22,5.4,8.467,5.4,8.467Z" transform="translate(-57.804 -168.853)" fill="#e4897b"/>
      <path id="Path_1747" data-name="Path 1747" d="M103.4,223.546a12.6,12.6,0,0,1-8.339-4.153,25.341,25.341,0,0,0-2.285-3.513l8.305,1.808a18.9,18.9,0,0,0,2.319,5.858Z" transform="translate(-57.804 -168.859)" opacity="0.2"/>
      <path id="Path_1748" data-name="Path 1748" d="M100.719,191.614c7.239.605,9.252,4.673,9.158,12.185-.111,9.38-2.737,15.835-11.622,13.089C86.181,213.162,88.688,190.608,100.719,191.614Z" transform="translate(-57.447 -165.28)" fill="#e4897b"/>
      <path id="Path_1749" data-name="Path 1749" d="M107.779,205a15.408,15.408,0,0,0,1.859,3.181,2.012,2.012,0,0,1-1.978.657Z" transform="translate(-59.996 -167.257)" fill="#de5753"/>
      <path id="Path_1750" data-name="Path 1750" d="M102.05,203.492l1.569-.512S102.783,204.225,102.05,203.492Z" transform="translate(-59.17 -166.959)" fill="#263238"/>
      <path id="Path_1751" data-name="Path 1751" d="M102.4,203.346a1.339,1.339,0,0,0-1.705.46,2.055,2.055,0,0,1,1.705,0Z" transform="translate(-58.969 -166.993)" fill="#263238"/>
      <path id="Path_1752" data-name="Path 1752" d="M99.217,199.055a.307.307,0,0,1-.213-.094.3.3,0,0,1,0-.435,4.076,4.076,0,0,1,3.522-.921.309.309,0,0,1-.128.605,3.513,3.513,0,0,0-2.95.742A.3.3,0,0,1,99.217,199.055Z" transform="translate(-58.707 -166.155)" fill="#263238"/>
      <path id="Path_1753" data-name="Path 1753" d="M112.048,199.211a.29.29,0,0,1-.188-.06,3.112,3.112,0,0,0-2.558-.784.309.309,0,0,1-.162-.6,3.684,3.684,0,0,1,3.112.9.316.316,0,0,1,.051.435A.307.307,0,0,1,112.048,199.211Z" transform="translate(-60.181 -166.183)" fill="#263238"/>
      <path id="Path_1754" data-name="Path 1754" d="M91.456,202.645s3.88-5.662,3.752-10.3c0,0,14.845-4.673,14.342,9.959,0,0,2.473-12.79-9.951-14.146s-13.865,16.909-7.887,22.878C91.711,211.035,89.076,206.192,91.456,202.645Z" transform="translate(-57.145 -164.765)" fill="#263238"/>
      <path id="Path_1755" data-name="Path 1755" d="M92.371,206.519a3.189,3.189,0,0,0-3.181-3.189c-2.268.06-3.718,4.579,1.774,6.156C91.748,209.708,92.269,208.966,92.371,206.519Z" transform="translate(-56.977 -167.011)" fill="#e4897b"/>
      <path id="Path_1756" data-name="Path 1756" d="M106.905,211.579a17.555,17.555,0,0,0-1.424,2.251c-.145-.051-.3-.094-.443-.153-2-.708-2.7-1.705-2.865-2.558a2.66,2.66,0,0,1,.094-1.3,2.772,2.772,0,0,1,.307-.682,9.874,9.874,0,0,0,3.65,2.2C106.633,211.493,106.905,211.579,106.905,211.579Z" transform="translate(-59.182 -167.867)" fill="#263238"/>
      <path id="Path_1757" data-name="Path 1757" d="M106.247,211.32l-.435.657c-1.893-.674-3.129-1.4-3.522-2.174a2.772,2.772,0,0,1,.307-.682A9.874,9.874,0,0,0,106.247,211.32Z" transform="translate(-59.205 -167.864)" fill="#fff"/>
      <path id="Path_1758" data-name="Path 1758" d="M105.045,214.018c-2-.708-2.7-1.705-2.865-2.558a6.753,6.753,0,0,1,2.072,1.219,2.558,2.558,0,0,1,.793,1.339Z" transform="translate(-59.189 -168.208)" fill="#de5753"/>
      <path id="Path_1759" data-name="Path 1759" d="M99.905,191.393s-3.914,11.673-11.4,10.872,5.346-14.905,5.346-14.905,12.628-3.607,18.128,3.411-2.72,11.273-2.72,11.273S110.487,192.885,99.905,191.393Z" transform="translate(-56.829 -164.522)" fill="#263238"/>
      <path id="Path_1760" data-name="Path 1760" d="M95.242,202a.239.239,0,0,1-.2-.136.222.222,0,0,1,.128-.281C101.135,199.305,101,191.3,101,191.213a.2.2,0,0,1,.2-.213.23.23,0,0,1,.222.2c0,.085.136,8.391-6.105,10.778Z" transform="translate(-58.135 -165.194)" fill="#263238"/>
      <path id="Path_1761" data-name="Path 1761" d="M110.67,204.323l1.569-.5S111.395,205.056,110.67,204.323Z" transform="translate(-60.44 -167.083)" fill="#263238"/>
      <path id="Path_1762" data-name="Path 1762" d="M111.015,204.176a1.33,1.33,0,0,0-1.705.469,2.038,2.038,0,0,1,1.705-.051Z" transform="translate(-60.239 -167.115)" fill="#263238"/>
      <path id="Path_1763" data-name="Path 1763" d="M97.212,227.13l6.336,3.223-.1,6.421L94.39,231.5Z" transform="translate(-58.041 -170.517)" fill="#35b6b4"/>
      <path id="Path_1764" data-name="Path 1764" d="M106.26,225.71l.375,3.9,4.136,4.374-.563-7.2Z" transform="translate(-59.79 -170.307)" fill="#35b6b4"/>
      <path id="Path_1765" data-name="Path 1765" d="M69.518,172.046l-2.643-6.822a2.371,2.371,0,0,0-.691-2c-1.842-1.373-5.645-2.618-6.6-2.473-1.39.2-4.263,2.72-4.016,4.366s8.365,2.66,8.365,2.66l2.695,7.478Z" transform="translate(-52.32 -160.736)" fill="#e4897b"/>
      <path id="Path_1766" data-name="Path 1766" d="M82.431,234.323s5.116-4.067,3.078-13.055l-5.5-24.865L70.562,170.72l-4.622,2.336s7.76,25.095,8.476,26.792c.367.853,1.825,13.873,3.812,22.6C80.052,230.477,82.431,234.323,82.431,234.323Z" transform="translate(-53.851 -162.207)" fill="#35b6b4"/>
      <path id="Path_1767" data-name="Path 1767" d="M82.431,234.323s5.116-4.067,3.078-13.055l-5.5-24.865L70.562,170.72l-4.622,2.336s7.76,25.095,8.476,26.792c.367.853,1.825,13.873,3.812,22.6C80.052,230.477,82.431,234.323,82.431,234.323Z" transform="translate(-53.851 -162.207)" fill="#fff" opacity="0.6"/>
      <path id="Path_1768" data-name="Path 1768" d="M64.99,172.133l5.4-2.7,1.177,1.8-6.31,2.8Z" transform="translate(-53.711 -162.017)" fill="#35b6b4"/>
      <path id="Path_1769" data-name="Path 1769" d="M64.99,172.133l5.4-2.7,1.177,1.8-6.31,2.8Z" transform="translate(-53.711 -162.017)" fill="#fff" opacity="0.7"/>
      <path id="Path_1770" data-name="Path 1770" d="M97.212,227.13l6.336,3.223-.1,6.421L94.39,231.5Z" transform="translate(-58.041 -170.517)" fill="#fff" opacity="0.6"/>
      <path id="Path_1771" data-name="Path 1771" d="M106.26,225.71l.375,3.9,4.136,4.374-.563-7.2Z" transform="translate(-59.79 -170.307)" fill="#fff" opacity="0.6"/>
    </g>
    <g id="freepik--Desk--inject-192" transform="translate(118.022 187.287)">
      <rect id="Rectangle_1111" data-name="Rectangle 1111" width="25.547" height="19.851" transform="translate(126.958 1.083)" fill="#fff"/>
      <rect id="Rectangle_1112" data-name="Rectangle 1112" width="6.549" height="19.851" transform="translate(145.956 1.083)" opacity="0.1"/>
      <path id="Path_1772" data-name="Path 1772" d="M285.58,249.026h28.881V213h-9.3l-19.578,9.371Z" transform="translate(-160.089 -210.561)" fill="#35b6b4"/>
      <rect id="Rectangle_1113" data-name="Rectangle 1113" width="9.303" height="36.026" transform="translate(145.069 2.439)" opacity="0.2"/>
      <rect id="Rectangle_1114" data-name="Rectangle 1114" width="13.524" height="6.48" transform="translate(128.467 18.913)" fill="#fff" opacity="0.7"/>
      <rect id="Rectangle_1115" data-name="Rectangle 1115" width="13.524" height="0.929" transform="translate(128.467 27.559)" fill="#fff" opacity="0.7"/>
      <rect id="Rectangle_1116" data-name="Rectangle 1116" width="7.512" height="5.5" transform="translate(145.956 30.279)" fill="#fff" opacity="0.7"/>
      <rect id="Rectangle_1117" data-name="Rectangle 1117" width="25.547" height="20.934" transform="translate(116.103 0)" fill="#fff"/>
      <rect id="Rectangle_1118" data-name="Rectangle 1118" width="6.549" height="20.934" transform="translate(135.101 0)" opacity="0.1"/>
      <path id="Path_1773" data-name="Path 1773" d="M272.85,249.026h28.881V213h-9.3l-19.578,9.371Z" transform="translate(-158.214 -210.561)" fill="#35b6b4"/>
      <rect id="Rectangle_1119" data-name="Rectangle 1119" width="9.303" height="36.026" transform="translate(134.214 2.439)" opacity="0.2"/>
      <rect id="Rectangle_1120" data-name="Rectangle 1120" width="13.524" height="6.48" transform="translate(117.612 18.913)" fill="#fff" opacity="0.7"/>
      <rect id="Rectangle_1121" data-name="Rectangle 1121" width="13.524" height="0.929" transform="translate(117.612 27.559)" fill="#fff" opacity="0.7"/>
      <rect id="Rectangle_1122" data-name="Rectangle 1122" width="7.512" height="5.5" transform="translate(135.101 30.279)" fill="#fff" opacity="0.7"/>
      <path id="Path_1774" data-name="Path 1774" d="M251.81,393.086h5.227l9.38-130.676h-6.932Z" transform="translate(-155.114 -217.84)" fill="#263238"/>
      <path id="Path_1775" data-name="Path 1775" d="M251.81,393.122h5.227l8.919-124.187.46-6.276h-6.932l-.367,6.276Z" transform="translate(-155.114 -217.876)" fill="#fff" opacity="0.1"/>
      <path id="Path_1776" data-name="Path 1776" d="M260.38,268.629h6.839l.46-5.969h-6.932Z" transform="translate(-156.377 -217.876)" opacity="0.2"/>
      <path id="Path_1777" data-name="Path 1777" d="M206.7,393.086h5.227l.853-130.676H205.85Z" transform="translate(-148.344 -217.84)" fill="#263238"/>
      <path id="Path_1778" data-name="Path 1778" d="M205.84,262.66l.145,21.079.708,109.384h5.227l.716-109.384.136-21.079Z" transform="translate(-148.343 -217.876)" fill="#fff" opacity="0.1"/>
      <path id="Path_1779" data-name="Path 1779" d="M205.84,262.66l.145,21.317h6.651l.136-21.317Z" transform="translate(-148.343 -217.876)" opacity="0.2"/>
      <path id="Path_1780" data-name="Path 1780" d="M141.81,393.086h5.227l9.38-130.676h-6.932Z" transform="translate(-138.911 -217.84)" fill="#263238"/>
      <path id="Path_1781" data-name="Path 1781" d="M141.81,393.122h5.227l8.928-124.187.452-6.276h-6.932l-.367,6.276Z" transform="translate(-138.911 -217.876)" fill="#fff" opacity="0.1"/>
      <path id="Path_1782" data-name="Path 1782" d="M150.38,268.629h6.847l.452-5.969h-6.932Z" transform="translate(-140.173 -217.876)" opacity="0.2"/>
      <path id="Path_1783" data-name="Path 1783" d="M320.268,393.086H325.5L317.812,262.41H310.88Z" transform="translate(-163.816 -217.84)" fill="#263238"/>
      <path id="Path_1784" data-name="Path 1784" d="M310.88,262.66l.469,6.276,8.919,124.187h5.219l-7.3-124.187-.375-6.276Z" transform="translate(-163.816 -217.876)" fill="#fff" opacity="0.1"/>
      <path id="Path_1785" data-name="Path 1785" d="M317.812,262.66H310.88l.469,5.969h6.839Z" transform="translate(-163.816 -217.876)" opacity="0.2"/>
      <path id="Path_1786" data-name="Path 1786" d="M1.842,0H152.564a1.842,1.842,0,0,1,1.842,1.842v4.7H0v-4.7A1.842,1.842,0,0,1,1.842,0Z" transform="translate(159.497 47.845) rotate(180)" fill="#35b6b4"/>
      <path id="Path_1787" data-name="Path 1787" d="M1.842,0H152.564a1.842,1.842,0,0,1,1.842,1.842v4.7H0v-4.7A1.842,1.842,0,0,1,1.842,0Z" transform="translate(159.497 47.845) rotate(180)" fill="#fff" opacity="0.4"/>
      <rect id="Rectangle_1123" data-name="Rectangle 1123" width="154.406" height="3.274" transform="translate(159.497 44.57) rotate(180)" opacity="0.2"/>
      <path id="Path_1788" data-name="Path 1788" d="M140.26,258.934H301.138a1.833,1.833,0,0,0,1.842-1.842h0a1.842,1.842,0,0,0-1.842-1.842H140.26a1.85,1.85,0,0,0-1.85,1.842h0a1.842,1.842,0,0,0,1.85,1.842Z" transform="translate(-138.41 -216.785)" fill="#35b6b4"/>
      <path id="Path_1789" data-name="Path 1789" d="M140.26,258.934H301.138a1.833,1.833,0,0,0,1.842-1.842h0a1.842,1.842,0,0,0-1.842-1.842H140.26a1.85,1.85,0,0,0-1.85,1.842h0a1.842,1.842,0,0,0,1.85,1.842Z" transform="translate(-138.41 -216.785)" fill="#fff" opacity="0.4"/>
      <path id="Path_1790" data-name="Path 1790" d="M281.782,252.247v-2.882h1.936l-1.936-1.126h1.45l-1.936-1.262h-1.833v-1.45h2.132l-2.132-.844v-3.146h2.132v-2.055h2.123l-2.123-.716V237.3h1.518l-1.245-1.236-1.074-1.083H247.845v1.475h-2.174l2.422,1.091v1.219H243.65v2.268h-1.97l1.97.989v2.533h1.4v1.211h2.8v3.6h-1.569l1.288,1.288v1.612Z" transform="translate(-153.622 -213.799)" fill="#35b6b4"/>
      <path id="Path_1791" data-name="Path 1791" d="M281.782,252.247v-2.882h1.936l-1.936-1.126h1.45l-1.936-1.262h-1.833v-1.45h2.132l-2.132-.844v-3.146h2.132v-2.055h2.123l-2.123-.716V237.3h1.518l-1.245-1.236-1.074-1.083H247.845v1.475h-2.174l2.422,1.091v1.219H243.65v2.268h-1.97l1.97.989v2.533h1.4v1.211h2.8v3.6h-1.569l1.288,1.288v1.612Z" transform="translate(-153.622 -213.799)" fill="#fff" opacity="0.7"/>
      <path id="Path_1792" data-name="Path 1792" d="M284.475,252.247v-2.882h1.936l-1.936-1.126h1.45l-1.936-1.262h-1.833v-1.45h2.132l-2.132-.844v-3.146h2.132v-2.055h2.123l-2.123-.716V237.3h1.518l-1.245-1.236-1.074-1.083H266.134v1.475h-2.174l2.413,1.091v1.219H261.93v2.268h-1.97l1.97.989v2.533h1.4v1.211h2.805v3.6h-1.569l1.279,1.288v1.612Z" transform="translate(-156.315 -213.799)" opacity="0.1"/>
      <path id="Path_1793" data-name="Path 1793" d="M249.2,239.323h15.587L249.2,238.76Z" transform="translate(-154.73 -214.356)" opacity="0.1"/>
      <path id="Path_1794" data-name="Path 1794" d="M248.91,247.63h15.6l.068,1.091Z" transform="translate(-154.687 -215.662)" opacity="0.1"/>
      <path id="Path_1795" data-name="Path 1795" d="M245.63,246.21h15.587l-15.587.546Z" transform="translate(-154.204 -215.453)" opacity="0.1"/>
      <path id="Path_1796" data-name="Path 1796" d="M248.91,251.751h15.6l-15.6-.571Z" transform="translate(-154.687 -216.185)" opacity="0.1"/>
      <path id="Path_1797" data-name="Path 1797" d="M248.58,253.36h15.587v.6Z" transform="translate(-154.639 -216.507)" opacity="0.1"/>
      <path id="Path_1798" data-name="Path 1798" d="M243.99,241.995h15.587L243.99,241.5Z" transform="translate(-153.962 -214.759)" opacity="0.1"/>
      <path id="Path_1799" data-name="Path 1799" d="M248.91,236.616h15.6l-15.6-.546Z" transform="translate(-154.687 -213.96)" opacity="0.1"/>
      <path id="Path_1800" data-name="Path 1800" d="M285.757,237.7H269.94l15.817.486Z" transform="translate(-157.785 -214.2)" opacity="0.1"/>
      <path id="Path_1801" data-name="Path 1801" d="M267.48,239.42H285.4l-16.244.529Z" transform="translate(-157.423 -214.453)" opacity="0.1"/>
      <path id="Path_1802" data-name="Path 1802" d="M262.27,242.08l22.358.5v-.5Z" transform="translate(-156.655 -214.845)" opacity="0.1"/>
      <path id="Path_1803" data-name="Path 1803" d="M262.27,243.24h11.059l-11.059.537Z" transform="translate(-156.655 -215.016)" opacity="0.1"/>
      <path id="Path_1804" data-name="Path 1804" d="M283.222,246.276l-16.022-.128,16.022-.358Z" transform="translate(-157.381 -215.391)" opacity="0.1"/>
      <path id="Path_1805" data-name="Path 1805" d="M283.172,247.35H266.86l16.312.546Z" transform="translate(-157.331 -215.621)" opacity="0.1"/>
      <path id="Path_1806" data-name="Path 1806" d="M285.583,250.53h-18.1v.554Z" transform="translate(-157.423 -216.09)" opacity="0.1"/>
      <path id="Path_1807" data-name="Path 1807" d="M286.444,251.85H273.33l13.115.367Z" transform="translate(-158.284 -216.284)" opacity="0.1"/>
      <path id="Path_1808" data-name="Path 1808" d="M229.535,250.87v2.737c0,.7-.853.989-1.526.989H173.333c-.7,0-1.543-.29-1.543-.989V250.87Z" transform="translate(-143.327 -216.14)" fill="#263238"/>
      <path id="Path_1809" data-name="Path 1809" d="M229.535,250.87v2.737c0,.7-.853.989-1.526.989H173.333c-.7,0-1.543-.29-1.543-.989V250.87Z" transform="translate(-143.327 -216.14)" fill="#fff" opacity="0.4"/>
      <path id="Path_1810" data-name="Path 1810" d="M232.752,250.87v2.737c0,.7-.853.989-1.526.989H195.165c-.7,0-1.535-.29-1.535-.989V250.87Z" transform="translate(-146.544 -216.14)" opacity="0.2"/>
      <path id="Path_1811" data-name="Path 1811" d="M242.366,217.313l-6.515,29.529a2.208,2.208,0,0,1-2.115,1.705H198.188a1.433,1.433,0,0,1-1.339-1.85l6.5-29.3a2.038,2.038,0,0,1,2.115-1.45h35.557C241.974,215.915,242.571,216.35,242.366,217.313Z" transform="translate(-147.009 -210.995)" fill="#263238"/>
      <path id="Path_1812" data-name="Path 1812" d="M242.574,217.313l-6.515,29.529a2.208,2.208,0,0,1-2.115,1.705H199.6a1.433,1.433,0,0,1-1.339-1.85l6.506-29.3a2.029,2.029,0,0,1,2.115-1.45h34.347C242.182,215.915,242.778,216.35,242.574,217.313Z" transform="translate(-147.217 -210.995)" fill="#fff" opacity="0.4"/>
      <path id="Path_1813" data-name="Path 1813" d="M228.4,234.36h0c0,2.558-2.712,4.579-4.7,4.579s-3.163-2.055-2.558-4.579,2.558-4.494,4.485-4.57c-.563,2.558.648,4.57,2.626,4.57Z" transform="translate(-150.573 -213.035)" opacity="0.2"/>
    </g>
  </g>
</svg>
